<svg width="52" height="52" viewBox="0 0 52 52" fill="none" xmlns="http://www.w3.org/2000/svg">
<rect width="52" height="52" rx="16" fill="#CFFAEA"/>
<path d="M33 24H19C17.6739 24 16.4021 24.5268 15.4645 25.4645C14.5268 26.4021 14 27.6739 14 29V35C14 36.3261 14.5268 37.5979 15.4645 38.5355C16.4021 39.4732 17.6739 40 19 40H33C34.3261 40 35.5979 39.4732 36.5355 38.5355C37.4732 37.5979 38 36.3261 38 35V29C38 27.6739 37.4732 26.4021 36.5355 25.4645C35.5979 24.5268 34.3261 24 33 24V24ZM26 36C25.2089 36 24.4355 35.7654 23.7777 35.3259C23.1199 34.8864 22.6072 34.2616 22.3045 33.5307C22.0017 32.7998 21.9225 31.9956 22.0769 31.2196C22.2312 30.4437 22.6122 29.731 23.1716 29.1716C23.731 28.6122 24.4437 28.2312 25.2196 28.0769C25.9956 27.9225 26.7998 28.0017 27.5307 28.3045C28.2616 28.6072 28.8864 29.1199 29.3259 29.7777C29.7654 30.4355 30 31.2089 30 32C30 33.0609 29.5786 34.0783 28.8284 34.8284C28.0783 35.5786 27.0609 36 26 36Z" fill="#00A86B"/>
<path d="M26 34C27.1046 34 28 33.1046 28 32C28 30.8954 27.1046 30 26 30C24.8954 30 24 30.8954 24 32C24 33.1046 24.8954 34 26 34Z" fill="#00A86B"/>
<path d="M26 12C25.7348 12 25.4805 12.1054 25.2929 12.2929C25.1054 12.4804 25 12.7348 25 13V18.59L22.46 16.05C22.2687 15.8862 22.0227 15.8006 21.771 15.8103C21.5193 15.82 21.2806 15.9243 21.1025 16.1024C20.9244 16.2805 20.82 16.5193 20.8103 16.7709C20.8006 17.0226 20.8862 17.2687 21.05 17.46L25.29 21.71C25.3822 21.8 25.4908 21.8713 25.61 21.92C25.7334 21.9723 25.866 21.9992 26 21.9992C26.134 21.9992 26.2666 21.9723 26.39 21.92C26.5092 21.8713 26.6179 21.8 26.71 21.71L31 17.46C31.1639 17.2687 31.2495 17.0226 31.2397 16.7709C31.23 16.5193 31.1257 16.2805 30.9476 16.1024C30.7695 15.9243 30.5308 15.82 30.2791 15.8103C30.0274 15.8006 29.7813 15.8862 29.59 16.05L27 18.59V13C27 12.7348 26.8947 12.4804 26.7071 12.2929C26.5196 12.1054 26.2652 12 26 12V12Z" fill="#00A86B"/>
</svg>
