<svg width="60" height="60" viewBox="0 0 60 60" fill="none" xmlns="http://www.w3.org/2000/svg">
<rect width="60" height="60" rx="16" fill="#CFFAEA"/>
<path d="M38.8375 27.4251C37.9854 26.5622 37.0077 25.8331 35.9375 25.2626C35.6576 25.1061 35.3697 24.9642 35.075 24.8376C34.4808 24.5689 33.8664 24.3474 33.2375 24.1751L32.6375 24.0376C32.2 23.9501 31.775 23.8876 31.3875 23.8376H30.8H30.5C30.1796 23.8129 29.8579 23.8129 29.5375 23.8376H29.2625H28.8H28.625C28.2048 23.8737 27.7873 23.9364 27.375 24.0251L26.7875 24.1626C26.1641 24.3343 25.5541 24.5515 24.9625 24.8126C24.6625 24.9501 24.3625 25.0876 24.0875 25.2376C22.0966 26.3064 20.4327 27.8949 19.2728 29.8341C18.1128 31.7732 17.5001 33.9905 17.5 36.2501V40.0001C17.5 41.6578 18.1585 43.2475 19.3306 44.4196C20.5027 45.5917 22.0924 46.2502 23.75 46.2502H36.25C37.9076 46.2502 39.4973 45.5917 40.6694 44.4196C41.8415 43.2475 42.5 41.6578 42.5 40.0001V36.2501C42.5077 34.6094 42.1876 32.9837 41.5587 31.4683C40.9298 29.9529 40.0046 28.5783 38.8375 27.4251V27.4251ZM29.375 33.7501H30.625C31.4538 33.6673 32.2816 33.917 32.9262 34.4445C33.5709 34.9719 33.9796 35.7338 34.0625 36.5626C34.1454 37.3915 33.8956 38.2192 33.3682 38.8639C32.8407 39.5085 32.0788 39.9173 31.25 40.0001C31.25 40.3317 31.1183 40.6496 30.8839 40.884C30.6495 41.1185 30.3315 41.2501 30 41.2501C29.6685 41.2501 29.3505 41.1185 29.1161 40.884C28.8817 40.6496 28.75 40.3317 28.75 40.0001H27.5C27.1685 40.0001 26.8505 39.8685 26.6161 39.634C26.3817 39.3996 26.25 39.0817 26.25 38.7501C26.25 38.4186 26.3817 38.1007 26.6161 37.8663C26.8505 37.6318 27.1685 37.5001 27.5 37.5001H30.625C30.7908 37.5001 30.9497 37.4343 31.0669 37.3171C31.1842 37.1999 31.25 37.0409 31.25 36.8751C31.25 36.7094 31.1842 36.5504 31.0669 36.4332C30.9497 36.316 30.7908 36.2501 30.625 36.2501H29.375C28.6 36.2509 27.8524 35.9637 27.2773 35.4443C26.7022 34.9249 26.3406 34.2103 26.2627 33.4392C26.1848 32.6682 26.3962 31.8957 26.8558 31.2717C27.3155 30.6478 27.9905 30.2169 28.75 30.0626V30.0001C28.75 29.6686 28.8817 29.3507 29.1161 29.1163C29.3505 28.8818 29.6685 28.7501 30 28.7501C30.3315 28.7501 30.6495 28.8818 30.8839 29.1163C31.1183 29.3507 31.25 29.6686 31.25 30.0001H32.5C32.8315 30.0001 33.1495 30.1318 33.3839 30.3663C33.6183 30.6007 33.75 30.9186 33.75 31.2501C33.75 31.5817 33.6183 31.8996 33.3839 32.134C33.1495 32.3685 32.8315 32.5001 32.5 32.5001H29.375C29.2092 32.5001 29.0503 32.566 28.9331 32.6832C28.8158 32.8004 28.75 32.9594 28.75 33.1251C28.75 33.2909 28.8158 33.4499 28.9331 33.5671C29.0503 33.6843 29.2092 33.7501 29.375 33.7501Z" fill="#00A86B"/>
<path d="M36.8249 19.5126L36.3374 22.6626L36.0999 22.5001C35.4053 22.1844 34.6863 21.9252 33.9499 21.7251C32.6599 21.3933 31.3318 21.2336 29.9999 21.2501C28.6662 21.2544 27.3385 21.4308 26.0499 21.7751C25.3229 21.9788 24.6125 22.2379 23.9249 22.5501L23.6624 22.6751L23.1749 19.5126C23.0747 18.859 23.1491 18.1905 23.3905 17.575C23.6319 16.9594 24.0317 16.4186 24.5495 16.0074C25.0673 15.5962 25.6846 15.3293 26.3389 15.2336C26.9931 15.1379 27.6611 15.2169 28.2749 15.4626L29.5249 15.9626C29.8219 16.0808 30.1529 16.0808 30.4499 15.9626L31.6999 15.4626C32.3138 15.2169 32.9817 15.1379 33.636 15.2336C34.2902 15.3293 34.9075 15.5962 35.4253 16.0074C35.9431 16.4186 36.343 16.9594 36.5844 17.575C36.8258 18.1905 36.9002 18.859 36.7999 19.5126H36.8249Z" fill="#00A86B"/>
</svg>
