<svg width="60" height="60" viewBox="0 0 60 60" fill="none" xmlns="http://www.w3.org/2000/svg">
<rect width="60" height="60" rx="16" fill="#BDDCFF"/>
<path d="M43.7501 27.5001H41.8626C41.5852 27.5119 41.3119 27.4311 41.0855 27.2704C40.8592 27.1097 40.6928 26.8783 40.6126 26.6126L38.5126 19.4501C38.1243 18.1591 37.3291 17.0283 36.2455 16.2263C35.162 15.4243 33.8481 14.9942 32.5001 15.0001H22.1376C20.8894 15.0004 19.6699 15.3744 18.6362 16.0739C17.6025 16.7734 16.8019 17.7665 16.3376 18.9251L12.7751 27.8376C12.5906 28.2811 12.4971 28.7572 12.5001 29.2376V35.0001C12.5001 36.4647 13.0145 37.8828 13.9535 39.0068C14.8925 40.1308 16.1963 40.8894 17.6376 41.1501C17.8972 42.2342 18.5116 43.2004 19.3833 43.8953C20.255 44.5902 21.3339 44.9739 22.4485 44.9854C23.5632 44.9969 24.6498 44.6355 25.5356 43.9587C26.4214 43.282 27.0557 42.3286 27.3376 41.2501H32.6626C32.9422 42.3201 33.5687 43.2671 34.4441 43.9431C35.3194 44.619 36.3941 44.9857 37.5001 44.9857C38.606 44.9857 39.6807 44.619 40.5561 43.9431C41.4314 43.2671 42.0579 42.3201 42.3376 41.2501H43.7501C44.7446 41.2501 45.6985 40.855 46.4017 40.1517C47.105 39.4485 47.5001 38.4946 47.5001 37.5001V31.2501C47.5001 30.2555 47.105 29.3017 46.4017 28.5984C45.6985 27.8951 44.7446 27.5001 43.7501 27.5001ZM22.5001 42.5001C22.0056 42.5001 21.5223 42.3534 21.1111 42.0787C20.7 41.804 20.3796 41.4136 20.1904 40.9568C20.0012 40.5 19.9516 39.9973 20.0481 39.5123C20.1446 39.0274 20.3827 38.5819 20.7323 38.2323C21.0819 37.8827 21.5274 37.6446 22.0123 37.5481C22.4973 37.4516 23 37.5011 23.4568 37.6904C23.9136 37.8796 24.304 38.2 24.5787 38.6111C24.8534 39.0223 25.0001 39.5056 25.0001 40.0001C25.0001 40.6631 24.7367 41.299 24.2678 41.7678C23.799 42.2367 23.1631 42.5001 22.5001 42.5001ZM28.7501 27.5001H15.5876L18.6501 19.8626C18.928 19.1648 19.409 18.5666 20.0308 18.1454C20.6526 17.7241 21.3865 17.4993 22.1376 17.5001H28.7501V27.5001ZM31.2501 27.5001V17.5001H32.5001C33.3125 17.4931 34.1053 17.7501 34.759 18.2325C35.4128 18.715 35.8922 19.3967 36.1251 20.1751L38.2626 27.3251C38.2822 27.3855 38.3073 27.4441 38.3376 27.5001H31.2501ZM37.5001 42.5001C37.0056 42.5001 36.5223 42.3534 36.1111 42.0787C35.7 41.804 35.3796 41.4136 35.1904 40.9568C35.0012 40.5 34.9516 39.9973 35.0481 39.5123C35.1446 39.0274 35.3827 38.5819 35.7323 38.2323C36.0819 37.8827 36.5274 37.6446 37.0123 37.5481C37.4973 37.4516 38 37.5011 38.4568 37.6904C38.9136 37.8796 39.304 38.2 39.5787 38.6111C39.8534 39.0223 40.0001 39.5056 40.0001 40.0001C40.0001 40.6631 39.7367 41.299 39.2678 41.7678C38.799 42.2367 38.1631 42.5001 37.5001 42.5001ZM45.0001 35.0001H43.7501C43.4185 35.0001 43.1006 34.8684 42.8662 34.6339C42.6318 34.3995 42.5001 34.0816 42.5001 33.7501C42.5001 33.4185 42.6318 33.1006 42.8662 32.8662C43.1006 32.6318 43.4185 32.5001 43.7501 32.5001H45.0001V35.0001Z" fill="#0077FF"/>
</svg>
