<svg width="32" height="32" viewBox="0 0 32 32" fill="none" xmlns="http://www.w3.org/2000/svg">
<path d="M25.19 12.46L13.19 24.46C12.9139 24.7302 12.5673 24.9173 12.19 25L8.64996 25.71C8.32767 25.7737 7.99465 25.7571 7.68033 25.6615C7.366 25.566 7.08005 25.3945 6.84775 25.1622C6.61545 24.9299 6.44395 24.6439 6.34841 24.3296C6.25287 24.0153 6.23623 23.6823 6.29996 23.36L6.99996 19.85C7.08263 19.4726 7.26975 19.1261 7.53996 18.85L19.38 6.99998C19.7665 6.60387 20.2285 6.28909 20.7385 6.07417C21.2486 5.85925 21.7965 5.74854 22.35 5.74854C22.9034 5.74854 23.4513 5.85925 23.9614 6.07417C24.4715 6.28909 24.9334 6.60387 25.32 6.99998C26.0089 7.75992 26.3796 8.75549 26.3554 9.78095C26.3312 10.8064 25.914 11.7834 25.19 12.51V12.46Z" stroke="#212325" stroke-width="2" stroke-linecap="round" stroke-linejoin="round"/>
</svg>
